<?xml version="1.0" standalone="no"?>
<!DOCTYPE svg PUBLIC "-//W3C//DTD SVG 20010904//EN"
 "http://www.w3.org/TR/2001/REC-SVG-20010904/DTD/svg10.dtd">
<svg version="1.0" xmlns="http://www.w3.org/2000/svg"
 width="203.000000pt" height="128.000000pt" viewBox="0 0 203.000000 128.000000"
 preserveAspectRatio="xMidYMid meet">

<g transform="translate(0.000000,128.000000) scale(0.100000,-0.100000)"
fill="#000000" stroke="none">
<path d="M505 1264 c-244 -52 -438 -249 -489 -497 -20 -96 -20 -158 0 -254 52
-252 246 -446 496 -497 97 -20 159 -20 256 0 250 51 444 245 496 497 20 96 20
158 0 255 -71 347 -411 569 -759 496z m463 -345 c48 -24 92 -80 95 -124 2 -23
-3 -29 -25 -36 -26 -7 -28 -4 -38 30 -15 57 -62 96 -115 96 -90 0 -146 -81
-153 -223 -8 -152 33 -249 115 -271 92 -26 163 40 163 152 0 27 -1 27 -65 27
-63 0 -65 1 -65 25 l0 25 100 0 100 0 0 -140 0 -140 -30 0 c-27 0 -30 3 -30
30 l0 30 -21 -21 c-97 -97 -265 -38 -314 111 -34 103 -28 247 15 329 55 109
165 150 268 100z m-493 -8 c96 -43 140 -141 133 -296 -5 -123 -39 -194 -112
-240 -46 -28 -56 -30 -168 -33 l-118 -4 0 296 0 296 113 0 c87 0 121 -5 152
-19z"/>
<path d="M270 635 l0 -245 63 0 c149 1 211 76 210 257 -1 163 -63 233 -206
233 l-67 0 0 -245z"/>
</g>
</svg>
